<svg xmlns="http://www.w3.org/2000/svg" version="1.1" xmlns:xlink="http://www.w3.org/1999/xlink" xmlns:svgjs="http://svgjs.com/svgjs"  preserveAspectRatio="none" viewBox="0 0 1440 250">
    <g mask="url(&quot;#SvgjsMask1012&quot;)" fill="none">
        <path d="M13 250L263 0L540.5 0L290.5 250z" fill="url(#SvgjsLinearGradient1013)"></path>
        <path d="M283.6 250L533.6 0L713.6 0L463.6 250z" fill="url(#SvgjsLinearGradient1013)"></path>
        <path d="M522.2 250L772.2 0L962.7 0L712.7 250z" fill="url(#SvgjsLinearGradient1013)"></path>
        <path d="M722.8000000000001 250L972.8000000000001 0L1166.3000000000002 0L916.3000000000001 250z" fill="url(#SvgjsLinearGradient1013)"></path>
        <path d="M1412 250L1162 0L1079.5 0L1329.5 250z" fill="url(#SvgjsLinearGradient1014)"></path>
        <path d="M1170.4 250L920.4000000000001 0L579.9000000000001 0L829.9000000000001 250z" fill="url(#SvgjsLinearGradient1014)"></path>
        <path d="M921.8 250L671.8 0L436.29999999999995 0L686.3 250z" fill="url(#SvgjsLinearGradient1014)"></path>
        <path d="M708.1999999999999 250L458.19999999999993 0L156.69999999999993 0L406.69999999999993 250z" fill="url(#SvgjsLinearGradient1014)"></path>
        <path d="M1310.0867037655873 250L1440 120.08670376558737L1440 250z" fill="url(#SvgjsLinearGradient1013)"></path>
        <path d="M0 250L129.91329623441263 250L 0 120.08670376558737z" fill="url(#SvgjsLinearGradient1014)"></path>
    </g>
    <defs>
        <mask id="SvgjsMask1012">
            <rect width="1440" height="250" fill="#ffffff"></rect>
        </mask>
        <linearGradient x1="0%" y1="100%" x2="100%" y2="0%" id="SvgjsLinearGradient1013">
            <stop stop-color="rgba(185, 15, 178, 0.2)" offset="0"></stop>
            <stop stop-opacity="0" stop-color="rgba(185, 15, 178, 0.2)" offset="0.66"></stop>
        </linearGradient>
        <linearGradient x1="100%" y1="100%" x2="0%" y2="0%" id="SvgjsLinearGradient1014">
            <stop stop-color="rgba(185, 15, 178, 0.2)" offset="0"></stop>
            <stop stop-opacity="0" stop-color="rgba(185, 15, 178, 0.2)" offset="0.66"></stop>
        </linearGradient>
    </defs>
</svg>